<?xml version="1.0" standalone="no"?>
<!DOCTYPE svg PUBLIC "-//W3C//DTD SVG 20010904//EN"
 "http://www.w3.org/TR/2001/REC-SVG-20010904/DTD/svg10.dtd">
<svg version="1.0" xmlns="http://www.w3.org/2000/svg"
 width="512.000000pt" height="512.000000pt" viewBox="0 0 512.000000 512.000000"
 preserveAspectRatio="xMidYMid meet">

<g transform="translate(0.000000,512.000000) scale(0.100000,-0.100000)"
fill="#32F051" stroke="none">
<path d="M2367 4494 c-253 -56 -491 -214 -623 -413 l-24 -38 -88 24 c-110 30
-294 41 -413 24 -415 -61 -756 -360 -873 -765 -90 -310 -29 -656 162 -912 144
-193 346 -334 571 -396 l81 -23 0 -568 0 -569 30 -28 c38 -36 157 -85 274
-115 466 -118 1318 -139 1941 -49 247 35 467 105 530 168 l25 25 0 568 0 568
72 18 c83 21 230 88 315 144 84 55 223 192 283 279 142 206 207 455 182 698
-16 147 -42 238 -107 371 -152 309 -436 522 -778 581 -126 22 -309 14 -435
-18 l-92 -24 -17 25 c-118 186 -330 341 -558 407 -76 22 -114 27 -240 30 -109
3 -169 -1 -218 -12z m391 -134 c186 -45 353 -149 468 -294 152 -190 222 -457
180 -685 -16 -90 -12 -112 25 -132 33 -17 69 -2 85 36 8 19 19 80 26 136 14
130 -1 274 -44 407 -22 72 -27 97 -18 102 35 21 147 35 285 35 176 -1 254 -18
400 -90 185 -92 332 -239 425 -428 62 -125 89 -230 97 -367 19 -359 -172 -699
-489 -870 -65 -35 -205 -90 -230 -90 -4 0 -8 70 -8 155 0 152 -1 156 -25 180
-29 30 -45 31 -79 4 l-26 -20 0 -724 0 -724 -57 20 c-137 47 -347 84 -653 116
-208 21 -866 24 -1065 5 -313 -31 -542 -69 -689 -116 l-76 -24 0 722 c0 396
-4 726 -8 732 -9 13 -46 34 -62 34 -6 0 -22 -11 -35 -25 -24 -24 -25 -28 -25
-180 0 -85 -2 -155 -4 -155 -2 0 -35 10 -72 21 -303 93 -548 357 -626 674 -31
126 -31 314 0 440 81 329 344 598 672 687 113 31 346 33 457 4 l72 -18 -14
-35 c-29 -69 -9 -123 45 -123 35 0 50 18 93 112 109 238 322 415 574 477 110
27 290 28 401 1z m187 -3350 c355 -24 722 -82 773 -123 20 -16 -15 -30 -128
-56 -260 -57 -507 -81 -912 -88 -359 -6 -578 4 -845 37 -155 20 -354 59 -408
80 l-30 12 22 17 c50 42 444 102 808 124 125 8 584 6 720 -3z"/>
<path d="M2335 2889 c-232 -15 -546 -70 -576 -100 -25 -25 -24 -64 1 -89 22
-22 37 -24 95 -10 113 28 361 61 527 72 274 17 543 -3 840 -63 101 -20 109
-21 133 -5 19 12 25 25 25 51 0 46 -21 59 -145 83 -305 62 -601 82 -900 61z"/>
</g>
</svg>
