<?xml version="1.0" standalone="no"?>
<!DOCTYPE svg PUBLIC "-//W3C//DTD SVG 20010904//EN"
 "http://www.w3.org/TR/2001/REC-SVG-20010904/DTD/svg10.dtd">
<svg version="1.0" xmlns="http://www.w3.org/2000/svg"
 width="512.000000pt" height="512.000000pt" viewBox="0 0 512.000000 512.000000"
 preserveAspectRatio="xMidYMid meet">

<g transform="translate(0.000000,512.000000) scale(0.100000,-0.100000)"
fill="#000000" stroke="none">
<path d="M2080 5107 c-49 -16 -133 -102 -148 -153 -28 -94 -8 -169 63 -239 62
-62 101 -75 229 -75 l97 0 -3 -87 -3 -87 -87 -13 c-300 -43 -651 -183 -898
-358 l-64 -45 -56 55 -55 55 177 178 c97 97 181 189 187 203 23 62 -80 162
-254 249 -151 74 -200 85 -395 84 -159 0 -169 -1 -260 -32 -52 -18 -119 -46
-149 -62 l-54 -30 -68 65 c-97 94 -105 93 -236 -38 -131 -131 -132 -139 -38
-236 l65 -68 -30 -54 c-16 -30 -44 -97 -62 -149 -31 -91 -32 -101 -32 -260 -1
-195 10 -244 84 -395 87 -174 187 -277 249 -254 14 6 106 90 203 187 l178 177
55 -55 54 -55 -70 -104 c-343 -513 -447 -1178 -277 -1776 79 -280 234 -577
407 -782 l61 -73 -195 -390 c-107 -214 -195 -401 -195 -415 0 -14 11 -37 25
-50 24 -25 26 -25 214 -25 l191 0 254 218 255 218 116 -57 c269 -131 556 -202
865 -216 353 -14 705 60 1033 220 l108 53 255 -218 254 -218 191 0 c188 0 190
0 214 25 14 13 25 36 25 50 0 14 -88 200 -195 415 l-195 390 67 82 c531 657
631 1553 258 2313 -35 72 -96 177 -134 235 l-70 105 54 55 55 55 178 -177 c97
-97 188 -181 202 -186 41 -16 82 9 143 84 69 86 127 194 163 304 26 80 28 96
28 255 0 165 -1 173 -32 265 -18 52 -46 119 -62 149 l-30 54 65 68 c94 97 93
105 -38 236 -131 131 -139 132 -236 38 l-68 -65 -54 30 c-30 16 -97 44 -149
62 -91 31 -101 32 -260 32 -195 1 -244 -10 -395 -84 -174 -87 -277 -187 -254
-249 6 -14 90 -106 187 -203 l177 -178 -55 -54 -55 -55 -90 60 c-267 179 -577
300 -873 342 l-87 13 -3 87 -3 87 99 0 c129 0 178 17 235 80 63 70 81 146 55
232 -6 22 -31 62 -55 88 -72 81 -69 80 -577 79 -291 -1 -453 -5 -476 -12z
m935 -172 c16 -15 25 -36 25 -55 0 -19 -9 -40 -25 -55 l-24 -25 -431 0 -431 0
-24 25 c-16 15 -25 36 -25 55 0 19 9 40 25 55 l24 25 431 0 431 0 24 -25z
m-1950 -240 c74 -20 148 -53 214 -96 l51 -34 -507 -507 c-504 -504 -506 -506
-524 -484 -35 44 -88 153 -111 226 -19 63 -23 95 -22 205 1 111 5 141 26 207
85 257 305 451 563 498 70 13 238 4 310 -15z m3380 -5 c125 -39 202 -86 300
-185 100 -99 146 -175 186 -305 19 -61 24 -98 24 -200 0 -165 -30 -266 -119
-403 l-31 -47 -507 507 c-501 501 -506 507 -485 523 67 53 175 101 282 126 85
20 259 12 350 -16z m-4185 -26 c11 -13 10 -19 -8 -37 -21 -20 -23 -20 -39 -4
-16 15 -16 18 2 37 22 24 29 25 45 4z m4645 -4 c18 -19 18 -22 2 -37 -16 -16
-18 -16 -39 4 -18 18 -19 24 -8 37 16 21 23 20 45 -4z m-2265 -100 l0 -80 -80
0 -80 0 0 80 0 80 80 0 80 0 0 -80z m111 -250 c485 -49 926 -266 1259 -617
283 -298 454 -647 526 -1068 25 -140 25 -472 1 -610 -80 -454 -270 -821 -584
-1125 -170 -166 -308 -263 -518 -366 -501 -244 -1078 -269 -1600 -68 -373 144
-723 427 -945 765 -410 623 -438 1424 -73 2077 199 355 498 636 867 818 331
162 705 230 1067 194z m-1660 -317 l45 -48 -103 -101 -102 -100 -48 48 -47 48
99 100 c55 55 102 100 105 100 3 0 26 -21 51 -47z m3094 -53 l99 -100 -47 -48
-48 -48 -102 100 -103 101 45 48 c25 26 48 47 51 47 3 0 50 -45 105 -100z
m-3031 -3258 c44 -38 107 -88 139 -111 31 -23 57 -44 57 -46 0 -2 -94 -85
-210 -185 l-209 -180 -81 0 -80 0 147 295 c82 162 150 295 152 295 2 0 40 -31
85 -68z m3049 -227 l147 -295 -80 0 -81 0 -209 180 c-116 100 -210 184 -210
188 1 4 31 28 68 54 37 27 98 75 136 108 38 33 72 60 75 60 4 0 72 -133 154
-295z"/>
<path d="M2338 3985 c-758 -104 -1344 -693 -1443 -1452 -99 -752 325 -1479
1031 -1767 822 -336 1759 26 2145 828 66 137 99 231 128 361 165 749 -194
1513 -876 1861 -300 153 -655 214 -985 169z m142 -265 l0 -120 80 0 80 0 0
120 0 121 53 -6 c196 -23 371 -72 530 -149 95 -46 242 -141 312 -201 l40 -34
-85 -86 -85 -85 58 -57 57 -58 83 83 c45 45 85 82 88 82 4 0 33 -35 66 -77
181 -235 281 -486 318 -800 l6 -53 -121 0 -120 0 0 -80 0 -80 120 0 121 0 -6
-52 c-24 -198 -74 -378 -150 -534 -46 -96 -140 -241 -199 -309 l-35 -40 -85
85 -86 85 -57 -58 -58 -57 85 -86 85 -85 -40 -35 c-68 -59 -213 -153 -309
-199 -156 -76 -336 -126 -533 -150 l-53 -6 0 121 0 120 -80 0 -80 0 0 -120 0
-121 -52 6 c-198 24 -378 74 -534 150 -96 46 -241 140 -309 199 l-40 35 82 83
83 83 -57 58 -58 57 -83 -83 -83 -82 -35 40 c-59 68 -153 213 -199 309 -77
159 -127 335 -150 534 l-6 52 121 0 120 0 0 80 0 80 -120 0 -121 0 6 53 c24
197 74 377 150 533 46 96 140 241 199 309 l35 40 83 -82 83 -83 58 57 57 58
-83 83 -82 83 40 35 c71 62 216 154 319 204 154 73 322 121 511 143 71 9 65
19 65 -113z"/>
<path d="M2480 3427 c-49 -16 -133 -102 -148 -153 -8 -29 -12 -146 -12 -390
l0 -349 -24 -35 c-122 -180 -36 -419 175 -486 49 -15 74 -37 284 -244 198
-196 237 -229 279 -244 96 -32 188 -11 260 58 70 69 92 164 60 262 -15 42 -48
81 -244 279 -207 210 -229 235 -244 284 -10 30 -28 70 -42 90 l-24 36 0 349
c0 240 -4 361 -12 388 -17 59 -88 133 -145 152 -53 18 -112 19 -163 3z m135
-172 l25 -24 0 -298 0 -298 -80 0 -80 0 0 298 0 298 25 24 c15 16 36 25 55 25
19 0 40 -9 55 -25z m8 -789 c103 -43 128 -177 48 -257 -65 -65 -157 -65 -222
0 -124 123 13 325 174 257z m405 -489 c161 -163 182 -187 182 -216 0 -45 -46
-91 -91 -91 -29 0 -53 21 -216 182 -101 100 -183 185 -183 188 0 3 16 15 35
28 19 12 45 38 57 57 13 19 25 35 28 35 3 0 88 -82 188 -183z"/>
</g>
</svg>
