<?xml version="1.0" standalone="no"?>
<!DOCTYPE svg PUBLIC "-//W3C//DTD SVG 20010904//EN"
 "http://www.w3.org/TR/2001/REC-SVG-20010904/DTD/svg10.dtd">
<svg version="1.0" xmlns="http://www.w3.org/2000/svg"
 width="512.000000pt" height="512.000000pt" viewBox="0 0 512.000000 512.000000"
 preserveAspectRatio="xMidYMid meet">

<g transform="translate(0.000000,512.000000) scale(0.100000,-0.100000)"
fill="#000000" stroke="none">
<path d="M2924 5110 c-68 -21 -127 -72 -161 -138 l-33 -64 0 -1060 0 -1060 29
-29 30 -29 1078 2 1078 3 48 28 c57 34 99 89 117 153 27 95 -21 388 -106 643
-261 789 -947 1383 -1766 1531 -132 24 -273 33 -314 20z m207 -206 c426 -59
832 -256 1143 -554 355 -340 579 -790 637 -1278 19 -160 148 -142 -1003 -142
l-978 0 0 972 0 972 22 23 c26 27 34 28 179 7z"/>
<path d="M3450 4113 c-105 -41 -79 -192 33 -193 52 0 97 43 97 94 0 62 -76
120 -130 99z"/>
<path d="M3885 4105 c-25 -12 -67 -78 -210 -326 -99 -171 -184 -322 -188 -336
-31 -87 88 -163 157 -100 13 12 106 164 206 337 161 281 181 319 176 349 -11
69 -81 106 -141 76z"/>
<path d="M3984 3505 c-60 -31 -73 -108 -25 -156 68 -68 184 -8 167 85 -12 66
-83 100 -142 71z"/>
<path d="M2015 4583 c-961 -123 -1750 -841 -1959 -1783 -41 -187 -51 -282 -50
-505 0 -290 30 -480 121 -750 45 -134 171 -389 248 -505 372 -555 937 -915
1595 -1016 141 -22 490 -25 625 -6 599 85 1130 384 1496 842 211 263 366 578
444 900 32 136 55 288 55 370 -1 109 -47 187 -145 238 l-50 27 -997 3 -998 2
0 973 c0 1114 5 1045 -84 1133 -72 73 -159 95 -301 77z m160 -218 l25 -24 0
-936 0 -936 -27 15 c-16 8 -118 66 -228 130 -219 127 -250 137 -300 93 -36
-31 -44 -93 -17 -128 12 -14 140 -94 287 -179 202 -116 264 -157 261 -169 -3
-9 -118 -439 -256 -956 -138 -517 -253 -948 -256 -957 -5 -16 -11 -15 -77 8
-96 34 -281 123 -375 180 -256 155 -494 384 -664 639 -80 121 -199 365 -243
500 -161 494 -134 1032 75 1509 23 53 47 96 52 96 6 0 114 -59 240 -132 259
-149 280 -155 330 -99 35 40 37 89 6 125 -13 14 -122 82 -243 152 -121 69
-224 129 -228 133 -4 4 19 45 52 92 310 435 780 737 1303 838 199 39 250 40
283 6z m2185 -2178 c24 -12 25 -17 24 -92 -2 -109 -37 -282 -89 -441 -44 -135
-122 -314 -136 -314 -4 0 -61 31 -126 68 -65 38 -192 112 -283 164 -91 52
-268 155 -395 228 -126 73 -320 185 -430 248 -110 64 -213 124 -230 134 -29
17 -8 18 805 18 659 0 840 -3 860 -13z m-1140 -540 c448 -258 821 -475 827
-481 28 -26 -223 -323 -395 -467 -300 -251 -639 -407 -1037 -475 -144 -25
-481 -25 -630 0 -60 10 -115 21 -121 24 -7 5 72 314 232 912 134 498 248 922
254 943 10 34 13 36 33 26 12 -7 389 -223 837 -482z"/>
<path d="M1254 2926 c-37 -37 -43 -70 -20 -115 15 -28 53 -51 86 -51 51 0 100
49 100 100 0 31 -29 76 -57 89 -42 19 -73 13 -109 -23z"/>
</g>
</svg>
